<?xml version="1.0" encoding="UTF-8" standalone="no"?>
<svg
   xmlns:dc="http://purl.org/dc/elements/1.1/"
   xmlns:cc="http://creativecommons.org/ns#"
   xmlns:rdf="http://www.w3.org/1999/02/22-rdf-syntax-ns#"
   xmlns:svg="http://www.w3.org/2000/svg"
   xmlns="http://www.w3.org/2000/svg"
   xmlns:sodipodi="http://sodipodi.sourceforge.net/DTD/sodipodi-0.dtd"
   xmlns:inkscape="http://www.inkscape.org/namespaces/inkscape"
   version="1.1"
   id="svg2"
   xml:space="preserve"
   width="96"
   height="96"
   viewBox="0 0 96 96"
   sodipodi:docname="shipany_logo_official_square_transparent_background.ai"><metadata
     id="metadata8"><rdf:RDF><cc:Work
         rdf:about=""><dc:format>image/svg+xml</dc:format><dc:type
           rdf:resource="http://purl.org/dc/dcmitype/StillImage" /></cc:Work></rdf:RDF></metadata><defs
     id="defs6"><clipPath
       clipPathUnits="userSpaceOnUse"
       id="clipPath18"><path
         d="M 0,72 H 72 V 0 H 0 Z"
         id="path16" /></clipPath><clipPath
       clipPathUnits="userSpaceOnUse"
       id="clipPath26"><path
         d="M 1.77582,66.1373 H 69.9905 V 6.246 H 1.77582 Z"
         id="path24" /></clipPath></defs><sodipodi:namedview
     pagecolor="#ffffff"
     bordercolor="#666666"
     borderopacity="1"
     objecttolerance="10"
     gridtolerance="10"
     guidetolerance="10"
     inkscape:pageopacity="0"
     inkscape:pageshadow="2"
     inkscape:window-width="640"
     inkscape:window-height="480"
     id="namedview4" /><g
     id="g10"
     inkscape:groupmode="layer"
     inkscape:label="shipany_logo_official_square_transparent_background"
     transform="matrix(1.3333333,0,0,-1.3333333,0,96)"><g
       id="g12"><g
         id="g14"
         clip-path="url(#clipPath18)"><g
           id="g20"><g
             id="g22" /><g
             id="g106"><g
               clip-path="url(#clipPath26)"
               id="g104"><g
                 transform="translate(36.4978,23.4548)"
                 id="g30"><path
                   d="M 0,0 C 0.02,-0.01 0.04,-0.02 0.059,-0.03 4.924,8.382 9.79,16.793 14.66,25.214 9.745,27.656 4.886,30.069 0,32.496 Z M -0.376,33.244 C 4.858,30.646 10.067,28.06 15.278,25.474 15.262,25.246 -0.021,-1.324 -0.356,-1.701 c -0.126,0.284 -0.156,34.36 -0.02,34.945"
                   style="fill:#13a68f;fill-opacity:1;fill-rule:nonzero;stroke:none"
                   id="path28" /></g><g
                 transform="translate(34.7816,55.9507)"
                 id="g34"><path
                   d="m 0,0 c -4.91,-2.438 -9.764,-4.849 -14.661,-7.281 4.883,-8.442 9.742,-16.843 14.601,-25.244 0.02,0.01 0.04,0.02 0.06,0.031 z m -15.36,-7.066 c 5.279,2.623 10.479,5.206 15.681,7.789 0.147,-0.421 0.172,-34.29 0.027,-34.947 -5.239,9.057 -10.469,18.1 -15.708,27.158"
                   style="fill:#10a58e;fill-opacity:1;fill-rule:nonzero;stroke:none"
                   id="path32" /></g><g
                 transform="translate(49.084,12.0261)"
                 id="g38"><path
                   d="m 0,0 c 0,-1.61 0,-3.22 0,-4.829 0,-0.08 -0.021,-0.169 0.007,-0.238 0.035,-0.083 0.099,-0.177 0.175,-0.211 0.041,-0.018 0.168,0.065 0.195,0.129 0.054,0.122 0.088,0.263 0.088,0.397 0.004,3.019 0.002,6.039 0.004,9.058 0,0.224 -0.042,0.487 0.259,0.571 C 0.999,4.952 1.173,4.819 1.322,4.593 1.697,4.024 2.091,3.467 2.477,2.907 2.838,2.383 3.204,1.864 3.559,1.337 4.018,0.657 4.466,-0.03 4.926,-0.709 c 0.539,-0.797 1.089,-1.587 1.629,-2.384 0.444,-0.656 0.88,-1.317 1.323,-1.973 0.037,-0.055 0.097,-0.1 0.155,-0.133 0.578,-0.326 1.198,0.071 1.198,0.772 0.002,2.59 10e-4,5.179 10e-4,7.769 0,0.69 0.008,1.38 -0.008,2.07 C 9.221,5.515 9.107,5.616 9.045,5.718 8.951,5.617 8.849,5.523 8.768,5.413 8.74,5.374 8.763,5.296 8.763,5.236 c 0,-2.979 0,-5.959 0,-8.939 0,-0.13 0.03,-0.271 -0.012,-0.386 C 8.702,-4.223 8.604,-4.416 8.5,-4.435 8.339,-4.464 8.075,-4.427 7.993,-4.316 7.515,-3.674 7.076,-3.003 6.627,-2.34 6.251,-1.782 5.882,-1.219 5.504,-0.662 4.964,0.135 4.416,0.926 3.876,1.723 3.494,2.286 3.122,2.856 2.743,3.421 2.334,4.032 1.94,4.653 1.505,5.245 1.357,5.446 1.124,5.665 0.897,5.71 0.383,5.813 0.002,5.414 0.001,4.859 -0.001,3.24 0,1.62 0,0 m 8.343,-3.889 c 0.007,0.112 0.019,0.225 0.019,0.337 0.002,2.959 -0.002,5.918 0.011,8.877 0,0.199 0.089,0.425 0.204,0.592 0.158,0.228 0.422,0.265 0.676,0.16 C 9.491,5.979 9.628,5.786 9.644,5.521 9.647,5.471 9.646,5.421 9.646,5.371 9.646,2.113 9.65,-1.146 9.637,-4.405 9.636,-4.661 9.568,-4.951 9.436,-5.167 8.954,-5.958 7.986,-5.976 7.457,-5.214 6.791,-4.254 6.142,-3.282 5.486,-2.315 4.035,-0.173 2.585,1.968 1.133,4.109 1.081,4.185 1.016,4.251 0.886,4.3 0.88,4.177 0.869,4.054 0.869,3.931 0.868,1.002 0.867,-1.927 0.871,-4.856 c 0,-0.296 -0.051,-0.551 -0.308,-0.737 -0.347,-0.252 -0.861,-0.098 -0.914,0.326 -0.071,0.572 -0.08,1.154 -0.08,1.732 0,2.798 0.01,5.597 0.021,8.396 0.003,0.6 0.335,1.091 0.813,1.24 0.561,0.175 1.064,-0.018 1.442,-0.576 2.061,-3.042 4.119,-6.087 6.179,-9.131 0.073,-0.108 0.161,-0.206 0.243,-0.309 0.025,0.008 0.05,0.017 0.076,0.026"
                   style="fill:#0ea58d;fill-opacity:1;fill-rule:nonzero;stroke:none"
                   id="path36" /></g><g
                 transform="translate(6.5759,6.72)"
                 id="g42"><path
                   d="m 0,0 c 0.75,0 1.5,-0.001 2.25,0.001 0.089,0 0.185,-0.005 0.265,0.025 0.608,0.227 1.113,0.57 1.435,1.167 0.443,0.82 0.522,1.65 0.216,2.532 C 3.713,5.029 2.615,5.393 1.431,5.637 1.122,5.7 0.805,5.717 0.495,5.775 c -0.568,0.107 -1.136,0.218 -1.699,0.348 -0.447,0.103 -0.924,0.166 -1.323,0.372 -1.191,0.617 -1.385,1.424 -1.039,2.731 0.081,0.304 0.387,0.574 0.645,0.797 0.178,0.155 0.449,0.28 0.681,0.284 1.419,0.026 2.839,-0.008 4.258,0.023 C 2.621,10.344 3.017,10.056 3.36,9.635 3.629,9.304 3.749,8.908 3.742,8.481 3.738,8.267 3.799,8.064 4.018,8.06 4.242,8.057 4.239,8.284 4.221,8.454 4.193,8.726 4.174,9.003 4.105,9.265 c -0.31,1.182 -1.242,1.894 -2.454,1.895 -1.12,0 -2.241,0.027 -3.359,-0.014 -0.4,-0.015 -0.828,-0.127 -1.184,-0.31 C -3.888,10.324 -4.21,9.378 -4.279,8.346 -4.303,7.999 -4.171,7.624 -4.042,7.288 -3.821,6.713 -3.466,6.227 -2.891,5.945 -2.343,5.676 -1.775,5.481 -1.166,5.392 -0.554,5.302 0.052,5.166 0.659,5.043 1.232,4.927 1.815,4.84 2.372,4.67 3.312,4.383 3.92,3.576 3.859,2.566 3.825,2.005 3.605,1.503 3.163,1.141 2.831,0.868 2.466,0.697 1.995,0.709 0.636,0.741 -0.727,0.771 -2.083,0.701 -2.874,0.66 -3.955,1.667 -3.825,2.452 -3.802,2.591 -3.866,2.77 -3.947,2.893 -3.99,2.957 -4.237,2.983 -4.254,2.953 -4.328,2.812 -4.415,2.633 -4.385,2.492 -4.309,2.128 -4.166,1.778 -4.063,1.419 -3.826,0.598 -2.815,-0.035 -2.069,-0.006 -1.381,0.022 -0.69,0 0,0 m 0.012,-0.417 c -0.7,0 -1.399,-0.01 -2.098,0.002 -1.22,0.023 -1.981,0.712 -2.439,1.769 -0.155,0.359 -0.219,0.767 -0.27,1.159 -0.024,0.192 0.038,0.42 0.129,0.596 0.124,0.241 0.354,0.399 0.644,0.338 0.295,-0.062 0.493,-0.26 0.555,-0.563 C -3.419,2.65 -3.41,2.407 -3.349,2.177 -3.176,1.516 -2.651,1.115 -1.965,1.113 -0.696,1.11 0.574,1.111 1.844,1.112 2.661,1.113 3.235,1.576 3.378,2.344 3.528,3.153 3.14,3.948 2.4,4.192 1.758,4.402 1.09,4.536 0.429,4.682 c -0.953,0.21 -1.926,0.348 -2.862,0.613 -1.212,0.342 -1.956,1.212 -2.184,2.43 -0.232,1.245 0.096,2.361 1.101,3.21 0.442,0.373 0.952,0.578 1.537,0.578 1.27,-10e-4 2.54,-0.02 3.809,0.007 C 3.087,11.546 4.078,10.698 4.446,9.642 4.585,9.245 4.642,8.809 4.674,8.386 4.704,7.996 4.404,7.669 4.079,7.638 3.718,7.604 3.419,7.859 3.333,8.271 3.274,8.553 3.255,8.852 3.143,9.111 2.904,9.659 2.483,9.96 1.853,9.953 0.634,9.94 -0.59,9.89 -1.805,9.967 c -1.05,0.067 -1.701,-1.15 -1.471,-1.968 0.2,-0.71 0.673,-1.108 1.34,-1.272 C -1.113,6.525 -0.275,6.387 0.558,6.223 1.447,6.048 2.366,5.972 3.173,5.511 4.32,4.855 4.802,3.833 4.754,2.535 4.71,1.341 4.176,0.442 3.147,-0.165 2.704,-0.426 2.208,-0.421 1.721,-0.435 1.152,-0.453 0.582,-0.439 0.012,-0.439 c 0,0.007 0,0.015 0,0.022"
                   style="fill:#0da48c;fill-opacity:1;fill-rule:nonzero;stroke:none"
                   id="path40" /></g><g
                 transform="translate(13.8,12.2308)"
                 id="g46"><path
                   d="m 0,0 c 0,-0.66 0,-1.319 0,-1.979 0,-1.079 -0.004,-2.159 0.008,-3.238 10e-4,-0.098 0.109,-0.194 0.167,-0.291 0.099,0.082 0.213,0.151 0.29,0.249 0.039,0.051 0.015,0.154 0.015,0.234 0,0.66 -0.002,1.32 0.001,1.979 0.002,0.297 0.119,0.414 0.419,0.414 2.079,0.002 4.158,0.002 6.237,0 0.312,0 0.421,-0.117 0.422,-0.441 0.003,-0.43 10e-4,-0.86 10e-4,-1.29 0,-0.29 -0.002,-0.579 0.001,-0.869 0.003,-0.181 0.104,-0.303 0.278,-0.265 0.082,0.018 0.142,0.163 0.197,0.259 0.022,0.037 0.004,0.097 0.004,0.147 0,3.379 0.001,6.757 -10e-4,10.135 0,0.191 0.063,0.466 -0.225,0.469 C 7.515,5.516 7.562,5.234 7.562,5.032 7.559,2.903 7.56,0.774 7.56,-1.354 c 0,-0.41 -0.146,-0.556 -0.554,-0.557 -1.989,0 -3.978,0 -5.967,0 -0.492,0 -0.559,0.066 -0.559,0.546 0,2.109 0.002,4.218 -0.005,6.327 C 0.475,5.113 0.42,5.269 0.359,5.41 0.335,5.467 0.217,5.528 0.159,5.514 0.096,5.5 0.034,5.407 0.007,5.335 -0.019,5.265 0,5.177 0,5.097 0,3.398 0,1.699 0,0 m 8.501,0.01 c 0,-1.689 0,-3.379 -10e-4,-5.068 0,-0.1 0.006,-0.203 -0.014,-0.299 C 8.411,-5.706 8.072,-5.998 7.773,-5.98 7.45,-5.962 7.165,-5.638 7.153,-5.245 7.133,-4.616 7.116,-3.986 7.126,-3.357 7.13,-3.089 7.068,-2.994 6.781,-2.996 4.922,-3.009 3.062,-3.007 1.203,-2.997 0.941,-2.995 0.862,-3.067 0.866,-3.333 0.876,-3.992 0.859,-4.652 0.838,-5.311 0.827,-5.663 0.57,-5.947 0.268,-5.982 c -0.293,-0.033 -0.594,0.207 -0.682,0.557 -0.029,0.115 -0.045,0.236 -0.045,0.354 -0.002,3.369 -0.002,6.738 0.001,10.107 0,0.147 0.02,0.3 0.059,0.442 0.086,0.307 0.385,0.508 0.678,0.475 C 0.612,5.915 0.826,5.682 0.835,5.32 0.852,4.591 0.868,3.861 0.871,3.132 0.876,1.722 0.878,0.313 0.868,-1.097 c -0.002,-0.25 0.05,-0.355 0.327,-0.353 1.87,0.011 3.739,0.009 5.608,10e-4 0.252,-10e-4 0.321,0.084 0.321,0.33 C 7.126,0.97 7.139,3.06 7.152,5.149 7.156,5.682 7.426,5.975 7.866,5.942 8.237,5.914 8.499,5.601 8.5,5.168 8.504,3.778 8.505,2.389 8.506,0.999 c 10e-4,-0.329 0,-0.659 0,-0.989 z"
                   style="fill:#10a58e;fill-opacity:1;fill-rule:nonzero;stroke:none"
                   id="path44" /></g><g
                 transform="translate(69.0075,15.5504)"
                 id="g50"><path
                   d="m 0,0 h -0.002 c 0,-0.52 0.036,-1.043 -0.012,-1.559 -0.037,-0.405 -0.129,-0.821 -0.28,-1.198 -0.336,-0.839 -0.918,-1.486 -1.71,-1.929 -0.348,-0.195 -0.743,-0.248 -1.122,-0.354 -0.554,-0.155 -1.047,0.005 -1.543,0.128 -0.687,0.171 -1.205,0.63 -1.662,1.162 -0.539,0.626 -0.824,1.368 -0.866,2.167 -0.058,1.087 -0.014,2.179 -0.022,3.269 0,0.124 -0.035,0.254 -0.085,0.368 -0.029,0.065 -0.131,0.15 -0.182,0.139 C -7.563,2.178 -7.66,2.098 -7.684,2.024 -7.741,1.849 -7.795,1.66 -7.791,1.479 c 0.028,-1.289 -0.13,-2.588 0.222,-3.858 0.284,-1.028 0.744,-1.948 1.618,-2.602 0.496,-0.371 1.032,-0.67 1.671,-0.735 0.307,-0.031 0.432,-0.186 0.434,-0.504 0.005,-0.72 -10e-4,-1.44 0.005,-2.16 0.002,-0.185 -0.07,-0.442 0.245,-0.445 0.31,-0.002 0.223,0.252 0.224,0.423 0.008,0.71 10e-4,1.42 0.005,2.13 10e-4,0.319 0.178,0.528 0.464,0.562 0.762,0.093 1.406,0.46 1.937,0.975 1.033,1.001 1.463,2.285 1.55,3.692 0.032,0.508 0.005,1.02 0.005,1.53 0,0.42 0.005,0.84 -0.002,1.26 C 0.584,1.956 0.523,2.19 0.287,2.19 0.038,2.191 0.018,1.942 0.001,1.74 -0.004,1.69 0,1.64 0,1.59 Z M 0.983,0.205 C 0.949,-0.553 0.993,-1.325 0.865,-2.066 0.54,-3.949 -0.467,-5.332 -2.31,-6.012 -2.901,-6.23 -2.904,-6.22 -2.904,-6.857 c 0,-0.52 0.005,-1.039 -0.007,-1.559 -0.003,-0.145 -0.037,-0.298 -0.093,-0.432 -0.124,-0.296 -0.439,-0.492 -0.678,-0.447 -0.298,0.055 -0.563,0.355 -0.572,0.685 -0.019,0.719 -0.031,1.439 -0.029,2.158 0.001,0.21 -0.075,0.301 -0.273,0.354 -2.046,0.551 -3.146,1.987 -3.499,3.98 -0.177,1.002 -0.092,2.05 -0.118,3.077 -0.008,0.32 0.003,0.64 0.014,0.959 0.014,0.415 0.324,0.739 0.685,0.727 0.335,-0.011 0.654,-0.354 0.656,-0.731 0.006,-1 -0.009,-1.999 0.007,-2.998 0.011,-0.751 0.185,-1.467 0.604,-2.102 0.654,-0.994 1.567,-1.52 2.774,-1.455 1.188,0.063 2.007,0.701 2.57,1.708 0.329,0.588 0.463,1.226 0.465,1.898 0.002,0.979 0.017,1.959 0.031,2.938 0.005,0.375 0.168,0.603 0.482,0.71 C 0.437,2.722 0.659,2.556 0.837,2.326 0.908,2.235 0.945,2.094 0.947,1.975 0.958,1.385 0.952,0.796 0.952,0.206 0.962,0.205 0.973,0.205 0.983,0.205"
                   style="fill:#0ea58d;fill-opacity:1;fill-rule:nonzero;stroke:none"
                   id="path48" /></g><g
                 transform="translate(46.3746,53.9336)"
                 id="g54"><path
                   d="m 0,0 c 0,1.764 0.002,3.491 -0.006,5.217 0,0.068 -0.067,0.161 -0.129,0.2 -0.376,0.24 -0.759,0.467 -1.139,0.699 -0.924,0.561 -1.847,1.123 -2.77,1.685 -0.925,0.563 -1.851,1.123 -2.774,1.689 -0.644,0.395 -1.28,0.803 -1.924,1.196 -0.368,0.225 -0.746,0.434 -1.131,0.657 V 4.786 C -6.58,3.19 -3.306,1.603 0,0 m -10.276,12.181 c 0.672,-0.408 1.303,-0.788 1.932,-1.172 C -5.515,9.279 -2.687,7.548 0.144,5.82 0.304,5.722 0.424,5.63 0.423,5.407 0.415,3.448 0.419,1.489 0.418,-0.47 c 0,-0.069 -0.014,-0.137 -0.026,-0.26 -0.39,0.179 -0.759,0.341 -1.122,0.517 -2.701,1.313 -5.402,2.63 -8.103,3.943 -0.404,0.196 -0.821,0.368 -1.215,0.582 -0.115,0.063 -0.247,0.232 -0.247,0.353 -0.014,2.439 -0.01,4.878 -0.009,7.317 0,0.048 0.013,0.096 0.028,0.199"
                   style="fill:#14a790;fill-opacity:1;fill-rule:nonzero;stroke:none"
                   id="path52" /></g><g
                 transform="translate(42.0546,17.7555)"
                 id="g58"><path
                   d="M 0,0 C -0.687,0 -1.093,-0.155 -1.319,-0.539 -1.577,-0.978 -1.783,-1.452 -1.966,-1.928 -2.33,-2.877 -2.664,-3.837 -3.008,-4.792 -3.307,-5.618 -3.601,-6.446 -3.901,-7.271 -4.134,-7.91 -4.377,-8.546 -4.61,-9.185 c -0.183,-0.501 -0.369,-1.002 -0.524,-1.511 -0.027,-0.089 0.091,-0.223 0.142,-0.336 0.087,0.061 0.223,0.103 0.253,0.185 0.295,0.805 0.564,1.619 0.863,2.422 0.042,0.113 0.193,0.213 0.316,0.259 0.124,0.047 0.276,0.022 0.416,0.022 1.939,10e-4 3.878,10e-4 5.817,0 0.14,0 0.289,0.021 0.417,-0.021 0.118,-0.038 0.27,-0.126 0.309,-0.229 0.305,-0.812 0.582,-1.635 0.884,-2.449 0.03,-0.082 0.166,-0.125 0.253,-0.186 0.059,0.111 0.192,0.247 0.165,0.33 -0.23,0.703 -0.484,1.398 -0.74,2.091 C 3.754,-8.052 3.526,-7.504 3.322,-6.947 3.081,-6.29 2.86,-5.625 2.621,-4.967 2.418,-4.41 2.2,-3.858 1.99,-3.303 1.674,-2.464 1.379,-1.615 1.036,-0.787 0.813,-0.248 0.344,-0.024 0,0 m -0.153,0.439 c 0.738,-0.049 1.355,-0.42 1.661,-1.174 0.446,-1.1 0.845,-2.218 1.254,-3.332 0.764,-2.079 1.522,-4.16 2.274,-6.242 0.062,-0.173 0.091,-0.372 0.079,-0.554 -0.022,-0.321 -0.275,-0.589 -0.547,-0.638 -0.231,-0.042 -0.519,0.136 -0.652,0.437 -0.132,0.301 -0.241,0.613 -0.355,0.922 -0.169,0.458 -0.337,0.917 -0.497,1.379 -0.057,0.164 -0.148,0.239 -0.328,0.238 -1.98,-0.004 -3.959,-0.004 -5.938,0.001 -0.19,10e-4 -0.262,-0.091 -0.317,-0.249 -0.245,-0.696 -0.487,-1.395 -0.754,-2.083 -0.076,-0.196 -0.203,-0.395 -0.361,-0.529 -0.196,-0.167 -0.443,-0.156 -0.663,0.013 -0.242,0.184 -0.354,0.517 -0.251,0.835 0.15,0.464 0.31,0.926 0.477,1.385 0.989,2.708 1.979,5.416 2.973,8.122 0.341,0.93 1.041,1.474 1.945,1.469"
                   style="fill:#10a58e;fill-opacity:1;fill-rule:nonzero;stroke:none"
                   id="path56" /></g><g
                 transform="translate(34.7999,65.2859)"
                 id="g62"><path
                   d="m 0,0 c -0.279,-0.176 -0.51,-0.324 -0.743,-0.468 -0.664,-0.409 -1.332,-0.812 -1.992,-1.228 -0.73,-0.459 -1.451,-0.932 -2.178,-1.395 -0.543,-0.345 -1.09,-0.684 -1.636,-1.025 -0.833,-0.52 -1.666,-1.041 -2.5,-1.559 -0.313,-0.195 -0.52,-0.395 -0.507,-0.842 0.043,-1.488 0.016,-2.978 0.016,-4.468 v -0.346 c 0.315,0.161 0.584,0.298 0.852,0.437 0.472,0.244 0.94,0.496 1.415,0.733 0.65,0.324 1.307,0.632 1.956,0.956 0.476,0.236 0.942,0.492 1.417,0.728 0.633,0.314 1.271,0.615 1.906,0.924 0.538,0.263 1.083,0.513 1.607,0.803 0.145,0.08 0.394,0.074 0.393,0.373 C -0.005,-4.279 0,-2.18 0,0 M 0.422,0.851 C 0.431,0.691 0.441,0.585 0.44,0.48 0.431,-1.88 0.418,-4.239 0.415,-6.599 0.414,-6.817 0.349,-6.947 0.151,-7.046 c -3.296,-1.643 -6.589,-3.291 -9.883,-4.936 -0.061,-0.031 -0.125,-0.053 -0.235,-0.098 -0.011,0.131 -0.028,0.234 -0.028,0.336 -0.002,1.91 10e-4,3.819 -0.006,5.729 -0.001,0.217 0.073,0.351 0.254,0.464 2.504,1.571 5.006,3.146 7.506,4.723 0.827,0.522 1.648,1.056 2.472,1.583 0.04,0.026 0.086,0.044 0.191,0.096"
                   style="fill:#10a58e;fill-opacity:1;fill-rule:nonzero;stroke:none"
                   id="path60" /></g><g
                 transform="translate(27.7949,6.7483)"
                 id="g66"><path
                   d="m 0,0 c 0.403,-0.032 0.523,0.096 0.524,0.465 0.003,0.95 0.001,1.899 0.001,2.849 0,0.405 0.091,0.497 0.487,0.498 1.06,0 2.12,-0.016 3.179,0.006 0.561,0.012 1.122,-0.084 1.686,0.1 0.459,0.15 0.888,0.323 1.248,0.645 C 7.68,5.06 8.002,5.686 8.232,6.396 8.439,7.033 8.434,7.659 8.293,8.277 8.152,8.891 7.886,9.476 7.465,9.961 6.918,10.59 6.239,10.997 5.385,11.008 4.195,11.023 3.006,11.01 1.816,11.012 1.417,11.013 1.09,10.841 0.797,10.592 0.159,10.05 -0.048,9.293 -0.06,8.524 -0.1,6.115 -0.078,3.706 -0.071,1.297 -0.07,0.867 -0.025,0.438 0,0 m -0.428,4.669 c 0,1.409 -0.025,2.819 0.008,4.228 0.026,1.099 0.56,1.916 1.563,2.394 0.182,0.086 0.404,0.123 0.608,0.125 1.259,0.01 2.519,0.031 3.777,-0.004 1.057,-0.03 1.833,-0.616 2.45,-1.427 C 9.499,7.981 8.867,4.89 6.689,3.768 6.338,3.587 5.912,3.481 5.517,3.468 4.1,3.422 2.68,3.424 1.261,3.427 0.978,3.428 0.909,3.342 0.91,3.07 0.915,2.131 0.894,1.192 0.88,0.252 0.874,-0.186 0.612,-0.482 0.225,-0.496 -0.109,-0.508 -0.426,-0.149 -0.427,0.262 -0.43,1.731 -0.428,3.2 -0.428,4.669"
                   style="fill:#0ca48c;fill-opacity:1;fill-rule:nonzero;stroke:none"
                   id="path64" /></g><g
                 transform="translate(24.72,12.2499)"
                 id="g70"><path
                   d="m 0,0 c 0,-1.71 0,-3.419 -0.001,-5.129 0,-0.188 -0.003,-0.396 0.251,-0.39 0.229,0.005 0.231,0.201 0.231,0.379 C 0.48,-1.74 0.48,1.659 0.478,5.059 0.478,5.156 0.476,5.268 0.43,5.347 0.389,5.418 0.279,5.501 0.212,5.492 0.136,5.482 0.05,5.385 0.013,5.306 -0.022,5.231 0,5.129 0,5.039 0,3.359 0,1.68 0,0 m -0.408,-0.031 c 0,1.728 -0.007,3.456 0.009,5.184 0.002,0.202 0.076,0.448 0.206,0.596 0.322,0.368 0.949,0.199 1.02,-0.285 0.076,-0.519 0.079,-1.053 0.079,-1.58 0,-3.037 -0.009,-6.074 -0.019,-9.11 -0.002,-0.424 -0.295,-0.766 -0.64,-0.775 -0.347,-0.008 -0.654,0.355 -0.655,0.786 -0.002,1.728 -0.001,3.456 0,5.184"
                   style="fill:#10a58e;fill-opacity:1;fill-rule:nonzero;stroke:none"
                   id="path68" /></g><g
                 transform="translate(34.7816,55.9507)"
                 id="g74"><path
                   d="m 0,0 v -32.494 c -0.02,-0.011 -0.04,-0.021 -0.06,-0.031 -4.859,8.401 -9.718,16.802 -14.601,25.244 C -9.764,-4.849 -4.91,-2.438 0,0"
                   style="fill:#169f84;fill-opacity:1;fill-rule:nonzero;stroke:none"
                   id="path72" /></g><g
                 transform="translate(6.5759,6.72)"
                 id="g78"><path
                   d="m 0,0 c -0.69,0 -1.381,0.022 -2.069,-0.006 -0.746,-0.029 -1.757,0.604 -1.994,1.425 -0.103,0.359 -0.246,0.709 -0.322,1.073 -0.03,0.141 0.057,0.32 0.131,0.461 0.017,0.03 0.264,0.004 0.307,-0.06 0.081,-0.123 0.145,-0.302 0.122,-0.441 -0.13,-0.785 0.951,-1.792 1.742,-1.751 1.356,0.07 2.719,0.04 4.078,0.008 C 2.466,0.697 2.831,0.868 3.163,1.141 3.605,1.503 3.825,2.005 3.859,2.566 3.92,3.576 3.312,4.383 2.372,4.67 1.815,4.84 1.232,4.927 0.659,5.043 0.052,5.166 -0.554,5.302 -1.166,5.392 c -0.609,0.089 -1.177,0.284 -1.725,0.553 -0.575,0.282 -0.93,0.768 -1.151,1.343 -0.129,0.336 -0.261,0.711 -0.237,1.058 0.069,1.032 0.391,1.978 1.387,2.49 0.356,0.183 0.784,0.295 1.184,0.31 1.118,0.041 2.239,0.014 3.359,0.014 C 2.863,11.159 3.795,10.447 4.105,9.265 4.174,9.003 4.193,8.726 4.221,8.454 4.239,8.284 4.242,8.057 4.018,8.06 3.799,8.064 3.738,8.267 3.742,8.481 3.749,8.908 3.629,9.304 3.36,9.635 3.017,10.056 2.621,10.344 2.018,10.33 0.599,10.299 -0.821,10.333 -2.24,10.307 -2.472,10.303 -2.743,10.178 -2.921,10.023 -3.179,9.8 -3.485,9.53 -3.566,9.226 -3.912,7.919 -3.718,7.112 -2.527,6.495 -2.128,6.289 -1.651,6.226 -1.204,6.123 -0.641,5.993 -0.073,5.882 0.495,5.775 0.805,5.717 1.122,5.7 1.431,5.637 2.615,5.393 3.713,5.029 4.166,3.725 4.472,2.843 4.393,2.013 3.95,1.193 3.628,0.596 3.123,0.253 2.515,0.026 2.435,-0.004 2.339,0.001 2.25,0.001 1.5,-0.001 0.75,0 0,0"
                   style="fill:#159f85;fill-opacity:1;fill-rule:nonzero;stroke:none"
                   id="path76" /></g><g
                 transform="translate(13.8,12.2308)"
                 id="g82"><path
                   d="M 0,0 C 0,1.699 0,3.398 0,5.097 0,5.177 -0.019,5.265 0.007,5.335 0.034,5.407 0.096,5.5 0.159,5.514 0.217,5.528 0.335,5.467 0.359,5.41 0.42,5.269 0.475,5.113 0.475,4.962 0.482,2.853 0.48,0.744 0.48,-1.365 c 0,-0.48 0.067,-0.546 0.559,-0.546 1.989,0 3.978,0 5.967,0 0.408,0.001 0.554,0.147 0.554,0.557 0,2.128 -10e-4,4.257 0.002,6.386 0,0.202 -0.047,0.484 0.252,0.481 C 8.102,5.51 8.039,5.235 8.039,5.044 8.041,1.666 8.04,-1.712 8.04,-5.091 8.04,-5.141 8.058,-5.201 8.036,-5.238 7.981,-5.334 7.921,-5.479 7.839,-5.497 7.665,-5.535 7.564,-5.413 7.561,-5.232 7.558,-4.942 7.56,-4.653 7.56,-4.363 c 0,0.43 0.002,0.86 -10e-4,1.29 -0.001,0.324 -0.11,0.441 -0.422,0.441 -2.079,0.002 -4.158,0.002 -6.237,0 -0.3,0 -0.417,-0.117 -0.419,-0.414 C 0.478,-3.705 0.48,-4.365 0.48,-5.025 0.48,-5.105 0.504,-5.208 0.465,-5.259 0.388,-5.357 0.274,-5.426 0.175,-5.508 0.117,-5.411 0.009,-5.315 0.008,-5.217 -0.004,-4.138 0,-3.058 0,-1.979 0,-1.319 0,-0.66 0,0"
                   style="fill:#169f84;fill-opacity:1;fill-rule:nonzero;stroke:none"
                   id="path80" /></g><g
                 transform="translate(34.7999,65.2859)"
                 id="g86"><path
                   d="M 0,0 C 0,-2.18 -0.005,-4.279 0.006,-6.377 0.007,-6.676 -0.242,-6.67 -0.387,-6.75 -0.911,-7.04 -1.456,-7.29 -1.994,-7.553 -2.629,-7.862 -3.267,-8.163 -3.9,-8.477 c -0.475,-0.236 -0.941,-0.492 -1.417,-0.728 -0.649,-0.324 -1.306,-0.632 -1.956,-0.956 -0.475,-0.237 -0.943,-0.489 -1.415,-0.733 -0.268,-0.139 -0.537,-0.276 -0.852,-0.437 v 0.346 c 0,1.49 0.027,2.98 -0.016,4.468 -0.013,0.447 0.194,0.647 0.507,0.842 0.834,0.518 1.667,1.039 2.5,1.559 0.546,0.341 1.093,0.68 1.636,1.025 0.727,0.463 1.448,0.936 2.178,1.395 0.66,0.416 1.328,0.819 1.992,1.228 C -0.51,-0.324 -0.279,-0.176 0,0"
                   style="fill:#169f84;fill-opacity:1;fill-rule:nonzero;stroke:none"
                   id="path84" /></g><g
                 transform="translate(31.0129,11.2799)"
                 id="g90"><path
                   d="M 0,0 C 0.58,0 1.16,0.018 1.739,-0.005 2.45,-0.033 3.083,0.127 3.629,0.608 4.152,1.068 4.536,1.629 4.607,2.312 4.658,2.801 4.681,3.307 4.526,3.816 4.305,4.544 3.869,5.073 3.254,5.469 2.936,5.674 2.583,5.777 2.183,5.769 0.994,5.745 -0.198,5.717 -1.384,5.779 -1.973,5.809 -2.712,4.985 -2.702,4.469 -2.676,3.13 -2.694,1.791 -2.693,0.451 -2.692,0.109 -2.586,0.002 -2.249,0.001 -1.499,-0.001 -0.75,0 0,0 m -3.218,-4.532 c -0.025,0.438 -0.07,0.868 -0.072,1.297 -0.006,2.409 -0.028,4.819 0.012,7.227 0.012,0.769 0.219,1.526 0.857,2.068 0.293,0.249 0.619,0.421 1.019,0.421 C -0.213,6.479 0.977,6.492 2.166,6.476 3.021,6.465 3.7,6.059 4.247,5.429 4.667,4.944 4.934,4.36 5.075,3.746 5.216,3.127 5.221,2.502 5.014,1.864 4.784,1.155 4.462,0.529 3.907,0.032 3.547,-0.29 3.118,-0.464 2.659,-0.614 2.095,-0.797 1.534,-0.701 0.973,-0.713 -0.086,-0.736 -1.146,-0.719 -2.206,-0.72 c -0.396,0 -0.487,-0.093 -0.487,-0.498 0,-0.949 0.002,-1.899 -10e-4,-2.849 -10e-4,-0.368 -0.121,-0.497 -0.524,-0.465"
                   style="fill:#159f85;fill-opacity:1;fill-rule:nonzero;stroke:none"
                   id="path88" /></g><g
                 transform="translate(24.72,12.2499)"
                 id="g94"><path
                   d="M 0,0 C 0,1.68 0,3.359 0,5.039 0,5.129 -0.022,5.231 0.013,5.306 0.05,5.385 0.136,5.482 0.212,5.492 0.279,5.501 0.389,5.418 0.43,5.347 0.476,5.268 0.478,5.156 0.478,5.059 0.48,1.659 0.48,-1.74 0.481,-5.14 0.481,-5.318 0.479,-5.514 0.25,-5.519 -0.004,-5.525 -0.001,-5.317 -0.001,-5.129 0,-3.419 0,-1.71 0,0"
                   style="fill:#169f84;fill-opacity:1;fill-rule:nonzero;stroke:none"
                   id="path92" /></g><g
                 transform="translate(41.8187,10.7433)"
                 id="g98"><path
                   d="M 0,0 C 0.769,0 1.538,-0.002 2.308,0.001 2.608,0.002 2.644,0.06 2.542,0.334 1.921,2.006 1.299,3.678 0.681,5.352 0.519,5.791 0.347,5.951 0.003,5.95 -0.312,5.95 -0.522,5.763 -0.665,5.368 -1.278,3.683 -1.891,1.998 -2.505,0.314 -2.614,0.017 -2.604,0.001 -2.278,0 -1.518,-0.001 -0.759,0 0,0 m -0.011,-0.428 c -0.83,0 -1.659,-0.001 -2.489,0.001 -0.525,0.001 -0.677,0.23 -0.494,0.719 0.458,1.22 0.911,2.441 1.362,3.663 0.215,0.584 0.414,1.173 0.635,1.754 0.146,0.383 0.458,0.591 0.841,0.695 C 0.2,6.502 0.861,6.145 0.999,5.77 1.337,4.853 1.657,3.93 1.998,3.015 2.329,2.127 2.699,1.252 3.009,0.357 3.19,-0.164 3.046,-0.455 2.507,-0.436 c -0.838,0.03 -1.678,0.008 -2.518,0.008"
                   style="fill:#10a68e;fill-opacity:1;fill-rule:nonzero;stroke:none"
                   id="path96" /></g><g
                 transform="translate(30.9646,11.6718)"
                 id="g102"><path
                   d="m 0,0 c 0,-0.003 0,-0.006 0,-0.009 0.649,0 1.299,-0.016 1.947,0.007 0.273,0.01 0.56,0.061 0.814,0.163 C 3.71,0.541 4.185,1.305 4.273,2.284 4.391,3.604 3.474,5.039 1.917,5.01 0.928,4.992 -0.06,5.008 -1.049,5.007 -1.771,5.006 -2.242,4.561 -2.248,3.839 -2.26,2.651 -2.248,1.462 -2.256,0.274 -2.257,0.065 -2.185,-0.006 -1.977,-0.003 -1.318,0.006 -0.659,0 0,0 m 0.048,-0.392 c -0.749,0 -1.499,-0.001 -2.249,0.001 -0.337,0.001 -0.443,0.108 -0.443,0.45 -10e-4,1.34 0.017,2.68 -0.01,4.018 -0.01,0.516 0.729,1.34 1.318,1.31 C -0.15,5.325 1.042,5.353 2.231,5.377 2.632,5.385 2.985,5.282 3.302,5.078 3.918,4.681 4.353,4.152 4.575,3.424 4.73,2.915 4.707,2.409 4.655,1.92 4.584,1.237 4.2,0.676 3.678,0.216 3.132,-0.265 2.499,-0.425 1.787,-0.397 1.209,-0.374 0.628,-0.392 0.048,-0.392"
                   style="fill:#0aa38b;fill-opacity:1;fill-rule:nonzero;stroke:none"
                   id="path100" /></g></g></g></g></g></g></g></svg>
